<mxfile host="app.diagrams.net" modified="2023-10-16T12:11:37.408Z" agent="Mozilla/5.0 (Windows NT 10.0; Win64; x64) AppleWebKit/537.36 (KHTML, like Gecko) Chrome/118.0.0.0 Safari/537.36 Edg/118.0.2088.46" version="22.0.4" etag="0NOXNCqZSCy82tLAOVfd" type="github">
  <diagram name="第 1 页" id="hKTjL96AS6puLZXakjHT">
    <mxGraphModel>
      <root>
        <mxCell id="0" />
        <mxCell id="1" parent="0" />
      </root>
    </mxGraphModel>
  </diagram>
</mxfile>
